<?xml version="1.0" encoding="UTF-8"?>
<!DOCTYPE svg PUBLIC "-//W3C//DTD SVG 1.1//EN"
"http://www.w3.org/Graphics/SVG/1.1/DTD/svg11-flat-20030114.dtd">
<svg xmlns="http://www.w3.org/2000/svg" width="100%" height="100%">
	<desc>
		<!-- put a description here -->
	</desc>
	<g>
		<rect width="40" height="60" x="300" y="150"
		style="fill:rgb(255,255,255);stroke-width:1;stroke:rgb(0,0,0)"/>
		<line x1="260" y1="210" x2="380" y2="210"
		style="stroke-width:1;stroke:rgb(0,0,0)"/>
		<line x1="300" y1="195" x2="340" y2="195"
		style="stroke-width:1;stroke:rgb(0,0,0)"/>
		<line x1="275" y1="210" x2="275" y2="250"
		style="stroke-width:1;stroke:rgb(0,0,0)"/>
		<polygon points="275,245 269,255 281,255"
		style="stroke-width:1;stroke:rgb(0,0,0);fill:black"/>
		<path d="M 285 210 C 285 230 315 230 315 210"
		style="stroke-width:1;stroke:rgb(0,0,0);fill:white;fill-opacity:0"/>
		<path d="M 297 224 C 300 250 350 255 349.5 210"
		style="stroke-width:1;stroke:rgb(0,0,0);fill:white;fill-opacity:0"/>
		<polygon points="320 210 347 226 350 210 " style="fill:black"/>
		<polygon points="349.5 219 347 226 350 210 " style="fill:black"/>
		<line x1="320" y1="210" x2="347" y2="226"
		style="stroke-width:1;stroke:rgb(0,0,0)"/>
		<line x1="301" y1="234" x2="342" y2="234.5"
		style="stroke-width:1;stroke:rgb(0,0,0)"/>
		<line x1="308" y1="234" x2="308" y2="240.5"
		style="stroke-width:1;stroke:rgb(0,0,0)"/>
		<line x1="315" y1="234" x2="315" y2="242.5"
		style="stroke-width:1;stroke:rgb(0,0,0)"/>
		<line x1="322" y1="234" x2="322" y2="243.3"
		style="stroke-width:1;stroke:rgb(0,0,0)"/>
		<line x1="329" y1="234" x2="329" y2="243.2"
		style="stroke-width:1;stroke:rgb(0,0,0)"/>
		<line x1="336" y1="234" x2="336" y2="240.5"
		style="stroke-width:1;stroke:rgb(0,0,0)"/>
	</g>
</svg>
