<?xml version="1.0" encoding="UTF-8"?>
<!DOCTYPE svg PUBLIC "-//W3C//DTD SVG 1.1//EN"
"http://www.w3.org/Graphics/SVG/1.1/DTD/svg11-flat-20030114.dtd">
<svg xmlns="http://www.w3.org/2000/svg" width="100%" height="100%">
	<desc>
		<!-- put a description here -->
	</desc>
	<g>
		<rect width="40" height="60" x="50" y="10"
		style="stroke-width:1;stroke:rgb(0,0,0);fill-opacity:0"/>
		<line x1="10" y1="70" x2="130" y2="70"
		style="stroke-width:1;stroke:rgb(0,0,0)"/>
		<line x1="50" y1="55" x2="90" y2="55"
		style="stroke-width:1;stroke:rgb(0,0,0)"/>
		<line x1="25" y1="70" x2="25" y2="110"
		style="stroke-width:1;stroke:rgb(0,0,0)"/>
		<polygon points="25,105 19,115 31,115"
		style="stroke-width:1;stroke:rgb(0,0,0);fill:black"/>
		<path d="M 35 70 C 35 90 65 90 65 70"
		style="stroke-width:1;stroke:rgb(0,0,0);fill:white;fill-opacity:0"/>
		<path d="M 47 84 C 50 110 100 115 99.5 70"
		style="stroke-width:1;stroke:rgb(0,0,0);fill:white;fill-opacity:0"/>
		<polygon points="70 70 97 86 100 70 " style="fill:black"/>
		<polygon points="99.5 79 97 86 100 70 " style="fill:black"/>
		<line x1="70" y1="70" x2="97" y2="86"
		style="stroke-width:1;stroke:rgb(0,0,0)"/>
		<line x1="51" y1="94" x2="92" y2="94.5"
		style="stroke-width:1;stroke:rgb(0,0,0)"/>
		<line x1="58" y1="94" x2="58" y2="100.5"
		style="stroke-width:1;stroke:rgb(0,0,0)"/>
		<line x1="65" y1="94" x2="65" y2="102.5"
		style="stroke-width:1;stroke:rgb(0,0,0)"/>
		<line x1="72" y1="94" x2="72" y2="103.3"
		style="stroke-width:1;stroke:rgb(0,0,0)"/>
		<line x1="79" y1="94" x2="79" y2="103.2"
		style="stroke-width:1;stroke:rgb(0,0,0)"/>
		<line x1="86" y1="94" x2="86" y2="100.5"
		style="stroke-width:1;stroke:rgb(0,0,0)"/>
	</g>
</svg>
